<mxfile host="app.diagrams.net" modified="2024-04-17T12:29:45.992Z" agent="Mozilla/5.0 (Macintosh; Intel Mac OS X 10_15_7) AppleWebKit/537.36 (KHTML, like Gecko) Chrome/123.0.0.0 Safari/537.36" version="24.0.7" etag="q7V0W-DPW3RLViVPUR5a" type="github">
  <diagram name="Page-1" id="wwVjeGYNJqYxM7-49Q9B">
    <mxGraphModel>
      <root>
        <mxCell id="0" />
        <mxCell id="1" parent="0" />
      </root>
    </mxGraphModel>
  </diagram>
</mxfile>
